<?xml version="1.0" encoding="utf-8"?>
<!-- Generator: Adobe Illustrator 22.1.0, SVG Export Plug-In . SVG Version: 6.00 Build 0)  -->
<svg version="1.1" id="Layer_1" xmlns="http://www.w3.org/2000/svg" xmlns:xlink="http://www.w3.org/1999/xlink" x="0px" y="0px"
	 viewBox="0 0 660.9 657.9" style="enable-background:new 0 0 660.9 657.9;" xml:space="preserve">
<style type="text/css">
	.st0{opacity:0.15;fill:#0071BC;enable-background:new    ;}
	.st1{opacity:0.28;fill:#29ABE2;enable-background:new    ;}
	.st2{fill:#FFFFFF;}
	.st3{fill:#623721;}
	.st4{fill:#452514;}
	.st5{fill:#D05E2D;}
	.st6{fill:#B14518;}
	.st7{fill:#853716;}
	.st8{fill:#E37949;}
	.st9{fill:#EEE4D3;}
	.st10{fill:#A49E9A;}
	.st11{fill:#301C12;}
	.st12{fill:#714028;}
	.st13{fill:#5C5755;}
	.st14{fill:#6A5D5D;}
	.st15{fill:#F4D596;}
	.st16{fill:#A6988F;}
	.st17{fill:#D8AA50;}
	.st18{fill:#383838;}
	.st19{fill:#242424;}
	.st20{fill:#EBEBEB;}
	.st21{fill:#D7A627;}
	.st22{fill:#353635;}
	.st23{fill:#94671F;}
	.st24{fill:#F2CD42;}
	.st25{fill:#4E4E4E;}
	.st26{fill:#CBCBCB;}
	.st27{fill:#2D3E43;}
	.st28{fill:#4F7380;}
	.st29{fill:#74A6AA;}
	.st30{fill:#87C3C8;}
	.st31{fill:#406061;}
	.st32{fill:#517C74;}
	.st33{fill:#1A1A1A;}
	.st34{fill:#B7B7B7;}
	.st35{fill:#4B4B4B;}
	.st36{fill:#686868;}
	.st37{fill:#FFDA7E;}
	.st38{fill:#E8BF5B;}
	.st39{fill:#F8693E;}
</style>
<g>
	<ellipse class="st0" cx="330.4" cy="328.9" rx="325.8" ry="325.8"/>
	<path class="st1" d="M608.5,325.5C610.4,479,487.4,605.1,333.8,607S54.2,485.9,52.3,332.3S173.4,52.7,327,50.8
		C480.6,48.9,606.6,171.9,608.5,325.5z"/>
	<g>
		<path class="st2" d="M286.6,203c-1,0-1.9-0.4-2.7-1.1l-15-15c-1.5-1.5-1.5-3.9,0-5.3c1.5-1.5,3.9-1.5,5.3,0l15,15
			c1.5,1.5,1.5,3.9,0,5.3C288.5,202.6,287.6,203,286.6,203z"/>
		<path class="st2" d="M271.6,203c-1,0-1.9-0.4-2.7-1.1c-1.5-1.5-1.5-3.9,0-5.3l15-15c1.5-1.5,3.9-1.5,5.3,0c1.5,1.5,1.5,3.9,0,5.3
			l-15,15C273.5,202.6,272.5,203,271.6,203z"/>
	</g>
	<g>
		<path class="st2" d="M578.3,453.1c-1,0-1.9-0.4-2.7-1.1l-15-15c-1.5-1.5-1.5-3.9,0-5.3c1.5-1.5,3.9-1.5,5.3,0l15,15
			c1.5,1.5,1.5,3.9,0,5.3C580.3,452.7,579.3,453.1,578.3,453.1z"/>
		<path class="st2" d="M563.3,453.1c-1,0-1.9-0.4-2.7-1.1c-1.5-1.5-1.5-3.9,0-5.3l15-15c1.5-1.5,3.9-1.5,5.3,0
			c1.5,1.5,1.5,3.9,0,5.3l-15,15C565.2,452.7,564.3,453.1,563.3,453.1z"/>
	</g>
	<g>
		<path class="st2" d="M113,460.6c-1,0-1.9-0.4-2.7-1.1l-15-15c-1.5-1.5-1.5-3.9,0-5.3c1.5-1.5,3.9-1.5,5.3,0l15,15
			c1.5,1.5,1.5,3.9,0,5.3C114.9,460.3,114,460.6,113,460.6z"/>
		<path class="st2" d="M98,460.6c-1,0-1.9-0.4-2.7-1.1c-1.5-1.5-1.5-3.9,0-5.3l15-15c1.5-1.5,3.9-1.5,5.3,0c1.5,1.5,1.5,3.9,0,5.3
			l-15,15C99.9,460.3,98.9,460.6,98,460.6z"/>
	</g>
	<path class="st37" d="M172,169c12.5,0,22.7,10.2,22.7,22.7c0,12.6-10.2,22.8-22.7,22.8c-12.6,0-22.7-10.2-22.7-22.8
		C149.3,179.2,159.5,169,172,169z"/>
	<path class="st37" d="M488.8,169c12.6,0,22.7,10.2,22.7,22.7c0,12.6-10.2,22.8-22.7,22.8s-22.7-10.2-22.7-22.8
		C466.1,179.2,476.3,169,488.8,169z"/>
	<path class="st38" d="M172,169c-2.8,0-5.5,0.5-8,1.5c8.6,3.3,14.7,11.5,14.7,21.2s-6.1,18-14.7,21.3c2.5,0.9,5.2,1.5,8,1.5
		c12.5,0,22.7-10.2,22.7-22.8C194.8,179.2,184.6,169,172,169z"/>
	<path class="st38" d="M488.8,169c-2.8,0-5.5,0.5-8,1.5c8.6,3.3,14.7,11.5,14.7,21.2s-6.1,18-14.7,21.3c2.5,0.9,5.2,1.5,8,1.5
		c12.5,0,22.7-10.2,22.7-22.8C511.5,179.2,501.3,169,488.8,169z"/>
	<polygon class="st2" points="211.2,249 113,354.9 113,249 172,249 	"/>
	<polygon class="st2" points="379.9,249 279.1,357.7 194.8,357.7 295.5,249 	"/>
	<polygon class="st2" points="547.8,249 547.8,249.8 447.8,357.7 363.4,357.7 464.2,249 	"/>
	<polygon class="st39" points="547.8,249.8 547.8,357.7 488.8,357.7 447.8,357.7 	"/>
	<polygon class="st39" points="464.2,249 363.4,357.7 279.1,357.7 379.9,249 	"/>
	<polygon class="st39" points="295.5,249 194.8,357.7 172,357.7 113,357.7 113,354.9 211.2,249 	"/>
	<path d="M172,546c-2.8,0-5-2.2-5-5V357.7c0-2.8,2.2-5,5-5s5,2.2,5,5V541C177.1,543.7,174.8,546,172,546z"/>
	<path d="M488.8,546c-2.8,0-5-2.2-5-5V357.7c0-2.8,2.2-5,5-5s5,2.2,5,5V541C493.8,543.7,491.6,546,488.8,546z"/>
	<path d="M379.9,254h-84.3c-2.8,0-5-2.2-5-5s2.2-5,5-5h84.3c2.8,0,5,2.2,5,5S382.7,254,379.9,254z"/>
	<path d="M279.1,362.7h-84.3c-2.8,0-5-2.2-5-5s2.2-5,5-5h84.3c2.8,0,5,2.2,5,5S281.9,362.7,279.1,362.7z"/>
	<path d="M113,359.9c-2.8,0-5-2.2-5-5V249c0-2.8,2.2-5,5-5h98.2c2.8,0,5,2.2,5,5s-2.2,5-5,5H118v100.9
		C118,357.7,115.8,359.9,113,359.9z"/>
	<path d="M447.8,362.7h-84.4c-2.8,0-5-2.2-5-5s2.2-5,5-5h84.3c2.8,0,5,2.2,5,5C452.8,360.5,450.5,362.7,447.8,362.7z"/>
	<path d="M547.8,254.8c-1,0-1.9-0.3-2.7-0.8h-80.9c-2.8,0-5-2.2-5-5s2.2-5,5-5h83.6c2.8,0,5,2.2,5,5v0.8
		C552.8,252.6,550.6,254.8,547.8,254.8z"/>
	<path d="M194.8,362.7h-81.7c-2.8,0-5-2.2-5-5v-2.8c0-1.3,0.5-2.5,1.3-3.4l98.1-105.9c1-1,2.3-1.6,3.7-1.6h84.3c2,0,3.8,1.2,4.6,3
		c0.8,1.8,0.4,4-0.9,5.4L198.4,361.1C197.5,362.1,196.2,362.7,194.8,362.7z M121.9,352.7h70.6l91.5-98.6h-70.6L121.9,352.7z"/>
	<path d="M363.4,362.7h-84.3c-2,0-3.8-1.2-4.6-3c-0.8-1.8-0.4-4,0.9-5.4l100.8-108.7c1-1,2.3-1.6,3.7-1.6h84.3c2,0,3.8,1.2,4.6,3
		s0.4,4-0.9,5.4L367.1,361.1C366.2,362.1,364.8,362.7,363.4,362.7z M290.6,352.7h70.6l91.5-98.6h-70.6L290.6,352.7z"/>
	<path d="M547.8,362.7h-100c-2,0-3.8-1.2-4.6-3s-0.4-4,0.9-5.4l100-107.9c1.4-1.5,3.6-2,5.5-1.3c1.9,0.8,3.2,2.6,3.2,4.7v107.9
		C552.8,360.5,550.6,362.7,547.8,362.7z M459.3,352.7h83.5v-90.1L459.3,352.7z"/>
	<path d="M517.6,546H113c-2.8,0-5-2.2-5-5s2.2-5,5-5h404.6c2.8,0,5,2.2,5,5C522.7,543.7,520.4,546,517.6,546z"/>
	<path d="M172,219.5c-15.3,0-27.8-12.5-27.8-27.8s12.4-27.8,27.8-27.8c15.3,0,27.8,12.4,27.8,27.8C199.8,207,187.3,219.5,172,219.5z
		 M172,174c-9.8,0-17.7,7.9-17.7,17.7c0,9.8,7.9,17.7,17.7,17.7c9.8,0,17.7-8,17.7-17.7C189.7,181.9,181.8,174,172,174z"/>
	<path d="M172,152.1c-2.8,0-5-2.2-5-5v-29.9c0-2.8,2.2-5,5-5s5,2.2,5,5v29.9C177.1,149.9,174.8,152.1,172,152.1z"/>
	<path d="M141.9,155.9c-1.5,0-3-0.7-4-1.9l-18.4-23.6c-1.7-2.2-1.3-5.3,0.9-7.1c2.2-1.7,5.3-1.3,7.1,0.9l18.4,23.6
		c1.7,2.2,1.3,5.3-0.9,7.1C144,155.5,142.9,155.9,141.9,155.9z"/>
	<path d="M202.2,155.9c-1.1,0-2.2-0.3-3.1-1.1c-2.2-1.7-2.6-4.9-0.9-7.1l18.3-23.6c1.7-2.2,4.9-2.6,7.1-0.9c2.2,1.7,2.6,4.9,0.9,7.1
		l-18.3,23.6C205.2,155.2,203.7,155.9,202.2,155.9z"/>
	<path d="M488.8,219.5c-15.3,0-27.8-12.5-27.8-27.8s12.5-27.8,27.8-27.8s27.8,12.4,27.8,27.8C516.6,207,504.1,219.5,488.8,219.5z
		 M488.8,174c-9.8,0-17.7,7.9-17.7,17.7c0,9.8,7.9,17.7,17.7,17.7s17.7-8,17.7-17.7C506.5,181.9,498.6,174,488.8,174z"/>
	<path d="M488.8,152.1c-2.8,0-5-2.2-5-5v-29.9c0-2.8,2.2-5,5-5s5,2.2,5,5v29.9C493.8,149.9,491.6,152.1,488.8,152.1z"/>
	<path d="M458.6,155.9c-1.5,0-3-0.7-4-1.9l-18.3-23.6c-1.7-2.2-1.3-5.3,0.9-7.1c2.2-1.7,5.3-1.3,7.1,0.9l18.3,23.6
		c1.7,2.2,1.3,5.3-0.9,7.1C460.8,155.5,459.7,155.9,458.6,155.9z"/>
	<path d="M519,155.9c-1.1,0-2.2-0.3-3.1-1.1c-2.2-1.7-2.6-4.9-0.9-7.1l18.3-23.6c1.7-2.2,4.9-2.6,7.1-0.9c2.2,1.7,2.6,4.9,0.9,7.1
		L523,153.9C522,155.2,520.5,155.9,519,155.9z"/>
	<path d="M172,254c-2.8,0-5-2.2-5-5v-34.5c0-2.8,2.2-5,5-5s5,2.2,5,5V249C177.1,251.8,174.8,254,172,254z"/>
	<path d="M488.8,252.6c-2.8,0-5-2.2-5-5v-33.1c0-2.8,2.2-5,5-5s5,2.2,5,5v33.1C493.8,250.3,491.6,252.6,488.8,252.6z"/>
	<path d="M545.1,546h-9.4c-2.8,0-5-2.2-5-5s2.2-5,5-5h9.4c2.8,0,5,2.2,5,5C550.1,543.7,547.9,546,545.1,546z"/>
	<path class="st2" d="M80.4,307.5H44.8c-2.1,0-3.8-1.7-3.8-3.8c0-2.1,1.7-3.8,3.8-3.8h35.6c2.1,0,3.8,1.7,3.8,3.8
		S82.5,307.5,80.4,307.5z"/>
	<path class="st2" d="M47.4,322H22.7c-2.1,0-3.8-1.7-3.8-3.8c0-2.1,1.7-3.8,3.8-3.8h24.7c2.1,0,3.8,1.7,3.8,3.8S49.5,322,47.4,322z"
		/>
	<path class="st2" d="M613.4,307.5h-22.8c-2.1,0-3.8-1.7-3.8-3.8c0-2.1,1.7-3.8,3.8-3.8h22.8c2.1,0,3.8,1.7,3.8,3.8
		S615.5,307.5,613.4,307.5z"/>
	<path class="st2" d="M637.6,307.5h-10.5c-2.1,0-3.8-1.7-3.8-3.8c0-2.1,1.7-3.8,3.8-3.8h10.5c2.1,0,3.8,1.7,3.8,3.8
		C641.3,305.8,639.6,307.5,637.6,307.5z"/>
	<path class="st2" d="M384.1,203h-41.2c-2.1,0-3.8-1.7-3.8-3.8s1.7-3.8,3.8-3.8h41.2c2.1,0,3.8,1.7,3.8,3.8S386.1,203,384.1,203z"/>
	<path class="st2" d="M337.5,127.4h-34.9c-2.1,0-3.8-1.7-3.8-3.8s1.7-3.8,3.8-3.8h34.9c2.1,0,3.8,1.7,3.8,3.8
		S339.6,127.4,337.5,127.4z"/>
	<path class="st2" d="M358.2,114.7h-29.8c-2.1,0-3.8-1.7-3.8-3.8s1.7-3.8,3.8-3.8h29.7c2.1,0,3.8,1.7,3.8,3.8
		S360.2,114.7,358.2,114.7z"/>
	<path class="st2" d="M305.2,415.1h-57.6c-2.1,0-3.8-1.7-3.8-3.8s1.7-3.8,3.8-3.8h57.6c2.1,0,3.8,1.7,3.8,3.8
		C309,413.4,307.3,415.1,305.2,415.1z"/>
	<path class="st2" d="M351,428.5h-55.5c-2.1,0-3.8-1.7-3.8-3.8s1.7-3.8,3.8-3.8H351c2.1,0,3.8,1.7,3.8,3.8
		C354.8,426.8,353.1,428.5,351,428.5z"/>
	<path class="st2" d="M383.1,486.1h-25.7c-2.1,0-3.8-1.7-3.8-3.8s1.7-3.8,3.8-3.8h25.7c2.1,0,3.8,1.7,3.8,3.8
		C386.8,484.5,385.2,486.1,383.1,486.1z"/>
	<path class="st2" d="M404.9,486.1h-8.2c-2.1,0-3.8-1.7-3.8-3.8s1.7-3.8,3.8-3.8h8.2c2.1,0,3.8,1.7,3.8,3.8
		C408.7,484.5,407,486.1,404.9,486.1z"/>
</g>
</svg>
