<?xml version="1.0" encoding="utf-8"?>
<!-- Generator: Adobe Illustrator 22.1.0, SVG Export Plug-In . SVG Version: 6.00 Build 0)  -->
<svg version="1.1" id="Layer_1" xmlns="http://www.w3.org/2000/svg" xmlns:xlink="http://www.w3.org/1999/xlink" x="0px" y="0px"
	 viewBox="0 0 1600 900" style="enable-background:new 0 0 1600 900;" xml:space="preserve">
<style type="text/css">
	.st0{fill-rule:evenodd;clip-rule:evenodd;fill:#FFFFFF;}
</style>
<g>
	<path class="st0" d="M799.9,450h0.7l-0.1-3.5h-0.6l-0.4,0.4c-2.6-1.4-6.1-0.5-7.3,2.5c-2.2,6.5,6.1,9.6,8.8,4.3l-0.6-0.4
		c-1,1.8-2.6,2.4-4,1.9c-1.7-0.6-2-2.5-2-4.1c0-0.8,0.1-1.6,0.3-2.4C795.5,445.8,799.2,446.3,799.9,450L799.9,450z"/>
	<path class="st0" d="M800.6,446.3v-0.5c1.1,0,2.2-0.1,3.3-0.1c0.1,0,0.2,0.1,0.2,0.2l0,4.6c1.4-1.9,4.7-1.8,4.7,1.3l0,2.9
		c0,0.7,0.3,0.9,1,0.9l0,0.5h-4v-0.5l0.4,0c0.3-0.1,0.4-0.3,0.4-0.6l0-3.6c-0.3-1.5-1.8-1.3-2.5-0.3v3.4c0,0.7,0.3,1,0.9,1v0.5h-4.1
		v-0.5c0.6,0,1.1-0.2,1.1-0.7l0-7.6C801.7,446.6,801.3,446.3,800.6,446.3L800.6,446.3z"/>
	<path class="st0" d="M817.1,446.3v-0.5c1.1,0,2.2-0.1,3.3-0.1c0.1,0,0.2,0.1,0.2,0.2l0,8.7c0,0.7,0.4,1,1,1v0.5h-4.2v-0.5
		c0.6,0,1.1-0.2,1.1-0.7l0-7.6C818.2,446.6,817.8,446.3,817.1,446.3L817.1,446.3z"/>
	<path class="st0" d="M817.3,452.7c0,2.3-1.7,3.5-3.9,3.5c-2.2,0-3.9-1.3-3.9-3.5s1.7-3.5,3.9-3.5
		C815.6,449.2,817.3,450.4,817.3,452.7L817.3,452.7z M814.9,452.7c0,1-0.1,3-1.5,3c-1.4,0-1.5-2-1.5-3c0-1,0.1-3,1.5-3
		C814.8,449.7,814.9,451.7,814.9,452.7L814.9,452.7z"/>
	<path class="st0" d="M823.9,450c1-0.5,1.6-0.3,1.8,0.6l0,1.2l-2.9,0.9c-1.8,0.7-1.7,3,0,3.4c1.1,0.3,2.1,0,2.9-0.9
		c0.4,1.2,1.7,1.2,3.3,0.6l0-0.5l-0.5,0c-0.5-0.1-0.7-0.4-0.6-0.8l0.1-3.2c0.1-2.2-2.4-2.6-4.3-2c-0.7,0.2-1.8,0.6-1.7,1.5
		C821.9,452.2,824.9,452.2,823.9,450L823.9,450z M825.7,452.4v2.3C824.1,456.4,822.3,453.4,825.7,452.4L825.7,452.4z"/>
	<path class="st0" d="M779.8,458.8c-0.6-1.4-0.4-2.7,0.8-4c1.5-1.6,3-3.3,2.2-4.7c0.6,0.3,1,0.6,1.2,1c0.9,2.4-2.6,4.1-3.6,5.8
		C780.1,457.4,779.9,458.1,779.8,458.8L779.8,458.8z"/>
	<path class="st0" d="M781.3,460.3c-0.6-1.4-0.4-2.7,0.9-4c1.6-1.6,3-3.3,2.2-4.7c0.6,0.3,1,0.6,1.2,1c0.9,2.4-2.7,4.1-3.7,5.8
		C781.5,458.9,781.4,459.6,781.3,460.3L781.3,460.3z"/>
	<path class="st0" d="M788.8,451.5c-1.4,0.6-2.7,0.4-4-0.8c-1.6-1.5-3.3-3-4.7-2.2c0.3-0.6,0.6-1,1-1.2c2.4-0.9,4.1,2.6,5.8,3.6
		C787.4,451.3,788.1,451.4,788.8,451.5L788.8,451.5z"/>
	<path class="st0" d="M790.3,450.1c-1.4,0.6-2.7,0.4-4-0.9c-1.6-1.6-3.3-3-4.7-2.2c0.3-0.6,0.6-1,1-1.2c2.4-0.9,4.1,2.7,5.8,3.7
		C788.9,449.8,789.6,450,790.3,450.1L790.3,450.1z"/>
	<path class="st0" d="M781.5,442.5c0.6,1.4,0.4,2.7-0.8,4c-1.5,1.6-3,3.3-2.2,4.7c-0.6-0.3-1-0.6-1.2-1c-0.9-2.4,2.6-4.1,3.6-5.8
		C781.3,443.9,781.4,443.2,781.5,442.5L781.5,442.5z"/>
	<path class="st0" d="M780.1,441c0.6,1.4,0.4,2.7-0.9,4c-1.6,1.6-3,3.3-2.2,4.7c-0.6-0.3-1-0.6-1.2-1c-0.9-2.4,2.7-4.1,3.7-5.8
		C779.8,442.4,780,441.7,780.1,441L780.1,441z"/>
	<path class="st0" d="M772.5,449.8c1.4-0.6,2.7-0.4,4,0.8c1.6,1.5,3.3,3,4.7,2.2c-0.3,0.6-0.6,1-1,1.2c-2.4,0.9-4.1-2.6-5.8-3.6
		C773.9,450.1,773.2,449.9,772.5,449.8L772.5,449.8z"/>
	<path class="st0" d="M771,451.3c1.4-0.6,2.7-0.4,4,0.9c1.6,1.6,3.3,3,4.7,2.2c-0.3,0.6-0.6,1-1,1.2c-2.4,0.9-4.1-2.7-5.8-3.7
		C772.4,451.5,771.7,451.4,771,451.3L771,451.3z"/>
</g>
</svg>
