<?xml version="1.0" encoding="utf-8"?>
<!-- Generator: Adobe Illustrator 22.1.0, SVG Export Plug-In . SVG Version: 6.00 Build 0)  -->
<svg version="1.1" id="Layer_1" xmlns="http://www.w3.org/2000/svg" xmlns:xlink="http://www.w3.org/1999/xlink" x="0px" y="0px"
	 viewBox="0 0 660.9 657.9" style="enable-background:new 0 0 660.9 657.9;" xml:space="preserve">
<style type="text/css">
	.st0{opacity:0.15;fill:#0071BC;enable-background:new    ;}
	.st1{opacity:0.28;fill:#29ABE2;enable-background:new    ;}
	.st2{fill:#FFFFFF;}
	.st3{fill:#623721;}
	.st4{fill:#452514;}
	.st5{fill:#D05E2D;}
	.st6{fill:#B14518;}
	.st7{fill:#853716;}
	.st8{fill:#E37949;}
	.st9{fill:#EEE4D3;}
	.st10{fill:#A49E9A;}
	.st11{fill:#301C12;}
	.st12{fill:#714028;}
	.st13{fill:#5C5755;}
	.st14{fill:#6A5D5D;}
	.st15{fill:#F4D596;}
	.st16{fill:#A6988F;}
	.st17{fill:#D8AA50;}
	.st18{fill:#383838;}
	.st19{fill:#242424;}
	.st20{fill:#EBEBEB;}
	.st21{fill:#D7A627;}
	.st22{fill:#353635;}
	.st23{fill:#94671F;}
	.st24{fill:#F2CD42;}
	.st25{fill:#4E4E4E;}
	.st26{fill:#CBCBCB;}
	.st27{fill:#2D3E43;}
	.st28{fill:#4F7380;}
	.st29{fill:#74A6AA;}
	.st30{fill:#87C3C8;}
	.st31{fill:#406061;}
	.st32{fill:#517C74;}
	.st33{fill:#1A1A1A;}
	.st34{fill:#B7B7B7;}
	.st35{fill:#4B4B4B;}
	.st36{fill:#686868;}
	.st37{fill:#FFDA7E;}
	.st38{fill:#E8BF5B;}
	.st39{fill:#F8693E;}
</style>
<g>
	<ellipse class="st0" cx="330.4" cy="328.9" rx="325.8" ry="325.8"/>
	<path class="st1" d="M608.4,325.5c1.8,153.5-121,279.5-274.5,281.3S54.4,485.8,52.6,332.3S173.6,52.8,327.1,51
		C480.5,49.2,606.4,172,608.4,325.5z"/>
	<g>
		<path class="st2" d="M286.8,203.1c-1,0-2-0.3-2.7-1.2l-15-15c-1.5-1.5-1.5-3.8,0-5.3s3.8-1.5,5.3,0l15,15c1.5,1.5,1.5,3.8,0,5.3
			C288.6,202.8,287.6,203.1,286.8,203.1z"/>
		<path class="st2" d="M271.8,203.1c-1,0-2-0.3-2.7-1.2c-1.5-1.5-1.5-3.8,0-5.3l15-15c1.5-1.5,3.8-1.5,5.3,0s1.5,3.8,0,5.3l-15,15
			C273.6,202.8,272.6,203.1,271.8,203.1z"/>
	</g>
	<g>
		<path class="st2" d="M578.3,453c-1,0-2-0.3-2.7-1.2l-15-15c-1.5-1.5-1.5-3.8,0-5.3s3.8-1.5,5.3,0l15,15c1.5,1.5,1.5,3.8,0,5.3
			C580.2,452.7,579.2,453,578.3,453z"/>
		<path class="st2" d="M563.3,453c-1,0-2-0.3-2.7-1.2c-1.5-1.5-1.5-3.8,0-5.3l15-15c1.5-1.5,3.8-1.5,5.3,0s1.5,3.8,0,5.3l-15,15
			C565.1,452.7,564.1,453,563.3,453z"/>
	</g>
	<g>
		<path class="st2" d="M113.3,460.6c-1,0-2-0.3-2.7-1.2l-15-15c-1.5-1.5-1.5-3.8,0-5.3s3.8-1.5,5.3,0l15,15c1.5,1.5,1.5,3.8,0,5.3
			C115.1,460.2,114.3,460.6,113.3,460.6z"/>
		<path class="st2" d="M98.2,460.6c-1,0-2-0.3-2.7-1.2c-1.5-1.5-1.5-3.8,0-5.3l15-15c1.5-1.5,3.8-1.5,5.3,0s1.5,3.8,0,5.3l-15,15
			C100.2,460.2,99.2,460.6,98.2,460.6z"/>
	</g>
	<path class="st2" d="M80.7,307.6H45.1c-2,0-3.8-1.7-3.8-3.8c0-2,1.7-3.8,3.8-3.8h35.6c2,0,3.8,1.7,3.8,3.8
		C84.5,305.8,82.7,307.6,80.7,307.6z"/>
	<path class="st2" d="M47.7,322H23.1c-2,0-3.8-1.7-3.8-3.8c0-2,1.7-3.8,3.8-3.8h24.6c2,0,3.8,1.7,3.8,3.8
		C51.4,320.3,49.8,322,47.7,322z"/>
	<path class="st2" d="M613.3,307.6h-22.7c-2,0-3.8-1.7-3.8-3.8c0-2,1.7-3.8,3.8-3.8h22.7c2,0,3.8,1.7,3.8,3.8
		C617.1,305.8,615.5,307.6,613.3,307.6z"/>
	<path class="st2" d="M637.4,307.6h-10.5c-2,0-3.8-1.7-3.8-3.8c0-2,1.7-3.8,3.8-3.8h10.5c2,0,3.8,1.7,3.8,3.8
		C641.2,305.8,639.5,307.6,637.4,307.6z"/>
	<path class="st2" d="M384.1,203.1h-41.3c-2,0-3.8-1.7-3.8-3.8c0-2.2,1.7-3.8,3.8-3.8h41.3c2,0,3.8,1.7,3.8,3.8
		C387.9,201.5,386.3,203.1,384.1,203.1z"/>
	<path class="st2" d="M337.6,127.6h-34.8c-2,0-3.8-1.7-3.8-3.8c0-2,1.7-3.8,3.8-3.8h34.8c2,0,3.8,1.7,3.8,3.8
		C341.5,125.7,339.6,127.6,337.6,127.6z"/>
	<path class="st2" d="M358.2,114.9h-29.8c-2,0-3.8-1.7-3.8-3.8c0-2,1.7-3.8,3.8-3.8h29.8c2,0,3.8,1.7,3.8,3.8
		C362,113.2,360.4,114.9,358.2,114.9z"/>
	<path class="st2" d="M305.4,415.1h-57.5c-2,0-3.8-1.7-3.8-3.8c0-2,1.7-3.8,3.8-3.8h57.5c2,0,3.8,1.7,3.8,3.8
		S307.4,415.1,305.4,415.1z"/>
	<path class="st2" d="M351.2,428.5h-55.5c-2,0-3.8-1.7-3.8-3.8c0-2,1.7-3.8,3.8-3.8h55.5c2,0,3.8,1.7,3.8,3.8
		C354.8,426.8,353.2,428.5,351.2,428.5z"/>
	<path class="st2" d="M383.1,486h-25.7c-2,0-3.8-1.7-3.8-3.8c0-2,1.7-3.8,3.8-3.8h25.7c2,0,3.8,1.7,3.8,3.8
		C386.9,484.3,385.3,486,383.1,486z"/>
	<path class="st2" d="M405,486h-8.2c-2,0-3.8-1.7-3.8-3.8c0-2,1.7-3.8,3.8-3.8h8.2c2,0,3.8,1.7,3.8,3.8C408.7,484.3,407,486,405,486
		z"/>
	<g>
		<polygon class="st3" points="205.9,379.7 226.3,379.7 226.3,418.3 205.9,418.3 		"/>
		<polygon class="st4" points="274.3,379.7 294.7,379.7 294.7,418.3 274.3,418.3 		"/>
		<polygon class="st4" points="182,437.3 386.9,437.3 386.9,457.7 182,457.7 		"/>
		<path class="st5" d="M182,366.3h68.4v71H182V366.3L182,366.3z M205.9,379.7h20.4v38.6h-20.4V379.7L205.9,379.7z"/>
		<path class="st6" d="M250.4,366.3h68.4v71h-68.4V366.3L250.4,366.3z M274.3,379.7h20.4v38.6h-20.4V379.7L274.3,379.7z"/>
		<path class="st7" d="M318.6,366.3H387v71h-68.4V366.3L318.6,366.3z M342.5,379.7h20.4v38.6h-20.4V379.7L342.5,379.7z"/>
		<path class="st8" d="M182,295.2h68.4v71H182V295.2L182,295.2z M205.9,308.4h20.4V347h-20.4V308.4L205.9,308.4z"/>
		<path class="st5" d="M250.4,295.2h68.4v71h-68.4V295.2L250.4,295.2z M274.3,308.4h20.4V347h-20.4V308.4L274.3,308.4z"/>
		<path class="st6" d="M318.6,295.2H387v71h-68.4V295.2L318.6,295.2z M342.5,308.4h20.4V347h-20.4V308.4L342.5,308.4z"/>
		<path class="st9" d="M182,224h68.4v71H182V224L182,224z M205.9,237.4h20.4V276h-20.4V237.4L205.9,237.4z"/>
		<path class="st8" d="M250.4,224h68.4v71h-68.4V224L250.4,224z M274.3,237.4h20.4V276h-20.4V237.4L274.3,237.4z"/>
		<path class="st5" d="M318.6,224H387v71h-68.4V224L318.6,224z M342.5,237.4h20.4V276h-20.4V237.4L342.5,237.4z"/>
		<path class="st10" d="M318.6,153H387v71h-68.4h-68.2v-71H318.6L318.6,153z M274.3,166.4h20.4V205h-20.4V166.4L274.3,166.4z
			 M342.5,166.4h20.4V205h-20.4V166.4L342.5,166.4z"/>
		<polygon class="st2" points="182,153 250.4,153 250.4,224 244.3,224 244.3,163.3 188,163.3 188,224 182,224 		"/>
		<polygon class="st11" points="342.5,379.7 362.9,379.7 362.9,418.3 342.5,418.3 		"/>
		<polygon class="st12" points="205.9,308.4 226.3,308.4 226.3,347.2 205.9,347.2 		"/>
		<polygon class="st3" points="274.3,308.4 294.7,308.4 294.7,347.2 274.3,347.2 		"/>
		<polygon class="st4" points="342.5,308.4 362.9,308.4 362.9,347.2 342.5,347.2 		"/>
		<polygon class="st13" points="205.9,237.4 226.3,237.4 226.3,276.2 205.9,276.2 		"/>
		<polygon class="st12" points="274.3,237.4 294.7,237.4 294.7,276.2 274.3,276.2 		"/>
		<polygon class="st3" points="342.5,237.4 362.9,237.4 362.9,276.2 342.5,276.2 		"/>
		<path class="st14" d="M608.3,457.6c4.5,0,8.2,4.5,8.2,10.2c0,5.5-3.7,10.2-8.2,10.2H60.6c-4.5,0-8.2-4.5-8.2-10.2
			c0-5.5,3.7-10.2,8.2-10.2H608.3L608.3,457.6z"/>
		<path class="st15" d="M218.3,475.8h201.9c3.5-0.2,6.5,3,6.5,6.5c0,3.7-3,6.5-6.5,6.5H218.3c-3.7,0-6.5-2.8-6.5-6.5
			C211.6,478.6,214.6,475.8,218.3,475.8L218.3,475.8z"/>
		<path class="st16" d="M93.4,471.1h82.1l0,0c2.8,0,5,5,5,11.2s-2.2,11.2-5,11.2l0,0H93.4l0,0l0,0c-2.8,0-5-5-5-11.2
			S90.7,471.1,93.4,471.1L93.4,471.1L93.4,471.1L93.4,471.1z"/>
		<path class="st17" d="M354.7,482.3c3.7,0,6.5,3,6.5,6.5c0,3.7-3,6.5-6.5,6.5h-70.4c-3.7,0-6.5-3-6.5-6.5s3-6.5,6.5-6.5H354.7
			L354.7,482.3z"/>
		<path class="st17" d="M394.5,482.3c3.7,0,6.5,3,6.5,6.5c0,3.7-3,6.5-6.5,6.5h-17.4c-3.7,0-6.5-3-6.5-6.5s3-6.5,6.5-6.5H394.5
			L394.5,482.3z"/>
		<path class="st15" d="M58.8,457.7c18.7-34.3,54-52.2,80.4-52.2v52.2H58.8L58.8,457.7z"/>
		<path class="st17" d="M219.6,457.7c-18.7-34.3-54-52.2-80.4-52.2v52.2H219.6L219.6,457.7z"/>
		<path class="st17" d="M116.8,433.7c1.5,0,2.7,1.2,2.7,2.7s-1.2,2.7-2.7,2.7s-2.7-1.2-2.7-2.7C114.3,434.8,115.5,433.7,116.8,433.7
			L116.8,433.7z"/>
		<path class="st17" d="M102.2,425.3c1,0,1.7,0.8,1.7,1.7c0,1-0.8,1.7-1.7,1.7c-1,0-1.7-0.8-1.7-1.7
			C100.6,426,101.4,425.3,102.2,425.3L102.2,425.3z"/>
		<path class="st17" d="M125.3,445.9c2,0,3.5,1.7,3.5,3.5c0,2-1.7,3.5-3.5,3.5c-2,0-3.5-1.7-3.5-3.5
			C121.8,447.5,123.3,445.9,125.3,445.9L125.3,445.9z"/>
		<path class="st17" d="M96.6,446.9c1.3,0,2.5,1.2,2.5,2.5s-1.2,2.5-2.5,2.5s-2.5-1.2-2.5-2.5S95.2,446.9,96.6,446.9L96.6,446.9z"/>
		<path class="st15" d="M150.9,442c1.3,0,2.5,1.2,2.5,2.5s-1.2,2.5-2.5,2.5s-2.5-1.2-2.5-2.5C148.4,443,149.4,442,150.9,442
			L150.9,442z"/>
		<path class="st15" d="M161.8,447.7c1,0,1.7,0.8,1.7,1.7c0,1-0.8,1.7-1.7,1.7c-1,0-1.7-0.8-1.7-1.7
			C159.9,448.5,160.8,447.7,161.8,447.7L161.8,447.7z"/>
		<path class="st17" d="M100.9,442.2c1,0,1.7,0.8,1.7,1.7c0,1-0.8,1.7-1.7,1.7c-1,0-1.7-0.8-1.7-1.7
			C99.2,442.8,99.9,442.2,100.9,442.2L100.9,442.2z"/>
		<path class="st17" d="M112.8,447.5c1,0,1.7,0.8,1.7,1.7c0,1-0.8,1.7-1.7,1.7c-1,0-1.7-0.8-1.7-1.7
			C111.1,448.2,111.8,447.5,112.8,447.5L112.8,447.5z"/>
		<path class="st17" d="M81.3,443.7c1,0,1.7,0.8,1.7,1.7c0,1-0.8,1.7-1.7,1.7c-1,0-1.7-0.8-1.7-1.7S80.5,443.7,81.3,443.7
			L81.3,443.7z"/>
		<g>
			<path class="st18" d="M236.1,260.1l-1.5,10c0.5,0.5,0.8,1,1,1.7c1,2.7-0.3,5.9-3,7c-2.7,1-5.9-0.3-7-3c0-0.2,0-0.2-0.2-0.3
				l-45.3,0.3l14-26.6c5.7-8.2,16.2-10,24.1-3l5.7,7.7l4.3-1c0.5-0.5,1.2-1,1.8-1.3c2.7-1,5.9,0.3,7,3
				C237.8,256.5,237.5,258.6,236.1,260.1L236.1,260.1z"/>
			<polygon class="st19" points="173.1,284.4 184,264.8 186.2,264.1 180.1,275.7 186,275.5 180.5,282 			"/>
			<path class="st20" d="M265.4,234.7l-7.2,4c0.8,0.7,1.7,1.5,2,2.5c0.2,0.5,0.3,1.2,0.3,1.7l7.2-4L265.4,234.7L265.4,234.7z"/>
			<path class="st21" d="M237.5,256.1l12.9-7.4l0.8-2c-0.3-0.5-0.7-1-1-1.5c-0.2-0.5-0.3-1.2-0.3-1.7L235,252c0.8,0.7,1.7,1.5,2,2.5
				C237.3,255.1,237.5,255.6,237.5,256.1L237.5,256.1z"/>
			<path class="st20" d="M366.9,214.5l15.9,12l2.8-3.8l-15.9-11.9c-0.3,1.2-1,2.2-2,3.2C367.4,214,367.2,214.2,366.9,214.5
				L366.9,214.5z"/>
			<path class="st21" d="M336.8,236.9L235,276.7c1-1.3,1.3-3.3,0.5-5c-0.2-0.7-0.7-1.2-1-1.7l0.7-4.5l11-6.9l-1,2.2
				c-0.5,0-1,0.2-1.7,0.3c-2.7,1-4.2,4.2-3,7c1,2.7,4.2,4.2,7,3c2.7-1,4.2-4.2,3-7c-0.2-0.5-0.5-1.2-1-1.5l3.5-8.5l54.5-34.1
				l28.8-18.1l19.7,0.5c-2.8,3-2.8,7.9,0,11c1.3,1.5,3.2,2.3,5,2.5l-14.5,13.5l-6.7-3.2c-2-1.2-4.7-1-6.4,0.7
				c-2.2,2-2.3,5.3-0.3,7.5c0.3,0.3,0.8,0.7,1.2,1l0,0L336.8,236.9L336.8,236.9z"/>
			<path class="st22" d="M472,344.2l35.4-2.2c4-0.2,6.5,1.8,7.2,5.2l0.3,1.5l-49.8,1.5l0.5-1.5C466.2,346.4,468.7,344.4,472,344.2
				L472,344.2z"/>
			<polygon points="473,422.3 527.4,422.3 527.4,418.1 473,418.1 			"/>
			<path class="st23" d="M600.2,409.9v2.8c0,3-2.3,5.3-5.3,5.3H463.3c-3,0-5-2.5-5.3-5.3l-0.3-2.8H600.2L600.2,409.9z"/>
			<path class="st21" d="M519.8,376.5h69c5.9,0,8.4,3.3,9.4,10.2l1.8,16.9v6.4h-80.4v-33.4h0.2V376.5z"/>
			<path class="st19" d="M561.8,380.8h23.6c1.7,0,2.8,1.3,3,3l1.3,16.2c0.2,1.7-1.3,3-3,3h-33.1L561.8,380.8L561.8,380.8z"/>
			<polygon class="st24" points="535.2,376.5 563.3,376.5 551.3,409.9 523.2,409.9 			"/>
			<path class="st22" d="M550.3,380.8h11.5l-8.2,22.2h-3.3c-1.7,0-3-1.3-3-3v-16.2C547.2,382.2,548.6,380.8,550.3,380.8L550.3,380.8
				z"/>
			<polygon class="st22" points="533.9,368.5 540.1,368.5 540.1,376.5 533.9,376.5 			"/>
			<polygon class="st19" points="531.4,368.5 531.4,364.4 542.6,364.4 542.6,368.5 			"/>
			<path class="st22" d="M542.6,364.4c0-2.2-2.5-4-5.7-4s-5.7,1.8-5.7,4H542.6L542.6,364.4z"/>
			<path class="st25" d="M465,350.2v-0.5l-7.2,0.2l0.8,25.6C460,367.5,462.2,358.8,465,350.2L465,350.2L465,350.2z"/>
			<path class="st26" d="M463.8,349.7l-2-47.1c-1.5,0.5-3.2,0.7-4.8,0.2l2,47.1L463.8,349.7L463.8,349.7z"/>
			<path class="st24" d="M340.1,226.4l107.7,50.3c28.1,13.2,40.5,35.8,43.5,61.4l0.7,4.8l-20.2,1.3V344c-2.2-5.5-5.2-10.9-8.9-16
				l-1-25.4c1-0.3,2-0.8,2.8-1.7c3.2-3,3.5-8,0.5-11.4c-3-3.2-8-3.5-11.4-0.5c-3.2,3-3.5,8-0.5,11.4c1,1.2,2.3,1.8,3.8,2.3l0.8,18.7
				c-9.7-11.4-22.4-21.4-34.9-29.3l-88.3-56.8l0,0c-0.5-0.3-0.8-0.5-1.2-1c-2-2.2-1.8-5.5,0.3-7.5
				C335.6,225.4,338.1,225,340.1,226.4L340.1,226.4z M339.8,233.4c-1.3,1.3-3.7,1.3-5-0.2c-1.3-1.3-1.3-3.7,0.2-5
				c1.3-1.3,3.7-1.3,5,0.2S341.3,232,339.8,233.4L339.8,233.4z"/>
			<path class="st25" d="M381.9,227.4l47.5,35.8l2.3-3l0.2-0.2l0,0l0,0l0,0c0.2-0.2,0.3-0.3,0.5-0.7c0.7-0.7,1.5-1,2.2-1.3
				l-48.5-36.4L381.9,227.4L381.9,227.4z"/>
			<path class="st21" d="M441.9,259.8c0.2,0.2,0.2,0.3,0.3,0.3l22.9,27.2l0,0c-5-4-10.7-7.7-17.2-10.7l-21.4-10l5.2-6.5l0.2-0.2l0,0
				l0,0l0,0c0.2-0.2,0.3-0.3,0.5-0.7C435.2,257,439.4,257.1,441.9,259.8L441.9,259.8z M439.6,262c1.3,1.5,1.2,3.7-0.2,5
				c-1.5,1.3-3.7,1.2-5-0.2c-1.3-1.5-1.2-3.7,0.2-5C436.1,260.5,438.3,260.5,439.6,262L439.6,262z"/>
			<path class="st23" d="M250.4,245.3c-1-2.7,0.3-5.9,3-7c2.7-1,5.9,0.3,7,3c1,2.7-0.3,5.9-3,7C254.5,249.3,251.4,247.9,250.4,245.3
				L250.4,245.3z M253,244.3c-0.5-1.3,0.2-2.8,1.5-3.3s2.8,0.2,3.3,1.5s-0.2,2.8-1.5,3.3C254.9,246.1,253.5,245.4,253,244.3
				L253,244.3z"/>
			<path class="st25" d="M301.8,212.5l-37.1,21.1l3.5,6.4l35.4-20.2l-1.5-3.7c-0.2-0.2-0.2-0.5-0.3-0.7l0,0l0,0
				C301.8,214.5,301.7,213.5,301.8,212.5L301.8,212.5z"/>
			<path class="st24" d="M302.3,216c-0.2-0.2-0.2-0.5-0.3-0.7l0,0l0,0c-0.7-2-0.2-4.3,1.5-5.9c0.8-0.7,1.7-1.2,2.7-1.3l30.4-6.2
				l-31.8,19.9L302.3,216L302.3,216z M309.9,216.2c-1.3,1.3-3.7,1.3-5-0.2c-1.3-1.3-1.3-3.7,0.2-5c1.3-1.3,3.7-1.3,5,0.2
				C311.4,212.5,311.2,214.8,309.9,216.2L309.9,216.2z"/>
			<path class="st24" d="M249.7,262.6l5.9-14c-1.7,0.2-3.3-0.5-4.3-1.8l-5.9,14C247,260.6,248.7,261.5,249.7,262.6L249.7,262.6z"/>
			<path class="st19" d="M228.8,255.1c0.8-1.8,2.8-2.7,4.7-1.8c1.8,0.8,2.7,2.8,1.8,4.7c-0.8,1.8-2.8,2.7-4.7,1.8
				C229,259,228.1,257,228.8,255.1L228.8,255.1z"/>
			<path class="st19" d="M227.3,272.3c0.8-1.8,2.8-2.7,4.7-1.8c1.8,0.8,2.7,2.8,1.8,4.7c-0.8,1.8-2.8,2.7-4.7,1.8
				C227.5,276.2,226.6,274,227.3,272.3L227.3,272.3z"/>
			<path class="st23" d="M465,289.6c3,3.2,2.8,8.4-0.5,11.4c-3.2,3-8.4,2.8-11.4-0.5c-3-3.2-2.8-8.4,0.5-11.4
				C457,286.2,462,286.4,465,289.6L465,289.6z M461.8,292.7c1.3,1.5,1.2,3.7-0.2,5c-1.5,1.3-3.7,1.2-5-0.2c-1.3-1.5-1.2-3.7,0.2-5
				C458.1,291.2,460.5,291.2,461.8,292.7L461.8,292.7z"/>
			<path class="st24" d="M461.8,292.7c1.3,1.5,1.2,3.7-0.2,5c-1.5,1.3-3.7,1.2-5-0.2c-1.3-1.5-1.2-3.7,0.2-5
				C458.1,291.2,460.5,291.2,461.8,292.7L461.8,292.7z"/>
			<path class="st23" d="M439.6,262c1.3,1.5,1.2,3.7-0.2,5c-1.5,1.3-3.7,1.2-5-0.2c-1.3-1.5-1.2-3.7,0.2-5
				C436.1,260.5,438.3,260.5,439.6,262L439.6,262z"/>
			<path class="st23" d="M339.8,233.4c-1.3,1.3-3.7,1.3-5-0.2c-1.3-1.3-1.3-3.7,0.2-5c1.3-1.3,3.7-1.3,5,0.2S341.3,232,339.8,233.4
				L339.8,233.4z"/>
			<path class="st23" d="M367.7,213.7c-3.2,3-8.4,3-11.4-0.3c-3-3.2-3-8.4,0.3-11.4c3.2-3,8.4-3,11.4,0.3
				C371.1,205.6,370.9,210.6,367.7,213.7L367.7,213.7z M364.7,205.5c1.3,1.5,1.2,3.7-0.2,5c-1.5,1.3-3.7,1.2-5-0.2
				c-1.3-1.5-1.2-3.7,0.2-5C361.2,204,363.4,204,364.7,205.5L364.7,205.5z"/>
			<path class="st24" d="M364.7,205.5c1.3,1.5,1.2,3.7-0.2,5c-1.5,1.3-3.7,1.2-5-0.2c-1.3-1.5-1.2-3.7,0.2-5
				C361.2,204,363.4,204,364.7,205.5L364.7,205.5z"/>
			<path class="st23" d="M309.9,216.2c-1.3,1.3-3.7,1.3-5-0.2c-1.3-1.3-1.3-3.7,0.2-5c1.3-1.3,3.7-1.3,5,0.2
				C311.4,212.5,311.2,214.8,309.9,216.2L309.9,216.2z"/>
			<path class="st24" d="M253,244.3c-0.5-1.3,0.2-2.8,1.5-3.3s2.8,0.2,3.3,1.5s-0.2,2.8-1.5,3.3C254.9,246.1,253.5,245.4,253,244.3
				L253,244.3z"/>
			<path class="st23" d="M240.7,268.2c-1-2.7,0.3-5.9,3-7c2.7-1,5.9,0.3,7,3c1,2.7-0.3,5.9-3,7C244.8,272.2,241.8,270.8,240.7,268.2
				L240.7,268.2z M247.5,268c-1,1-2.7,1-3.5-0.2c-1-1-1-2.7,0.2-3.5c1-1,2.7-1,3.5,0.2C248.5,265.5,248.5,267,247.5,268L247.5,268z"
				/>
			<path class="st24" d="M247.5,268c-1,1-2.7,1-3.5-0.2c-1-1-1-2.7,0.2-3.5c1-1,2.7-1,3.5,0.2C248.5,265.5,248.5,267,247.5,268
				L247.5,268z"/>
			<path class="st27" d="M496.4,409.9h-38.8c-0.5-7-0.7-13.9-0.5-20.9l49.5-9.9c-6,1.2-9.7,4.7-9.7,10L496.4,409.9L496.4,409.9z
				 M519.8,376.5L519.8,376.5L519.8,376.5L519.8,376.5z"/>
			<path class="st28" d="M457.1,389c0.3-11.2,3.5-25.1,7.9-38.8l49.8-1.5l5,27.7L457.1,389L457.1,389z"/>
			<polygon class="st29" points="482.9,349.6 493.3,349.4 480.5,384.3 469.3,386.5 			"/>
			<polygon class="st30" points="475.7,349.9 480.2,349.7 466.7,387.2 461.7,388.2 			"/>
			<polygon class="st31" points="461,409.9 471.2,409.9 480.5,384.3 469.3,386.5 			"/>
			<path class="st32" d="M457.6,409.9h0.7l8.4-22.7l-1,0.2l-3.8,0.8l-4.5,12.5C457.3,403.7,457.3,406.7,457.6,409.9L457.6,409.9z"/>
			<path class="st24" d="M519.8,409.9h-23.4l0.5-20.7c0-5.3,3.7-8.9,9.7-10l13.4-2.7v33.4H519.8z"/>
			<path class="st33" d="M428.1,457.7L428.1,457.7L428.1,457.7z M426.7,427l47.8-4.7H526l47.8,4.7c7.9,0.7,13.9,7.4,13.9,15.4
				c0,8.5-6.9,15.4-15.4,15.4H428.2c-8.5,0-15.4-6.9-15.4-15.4C412.7,434.3,418.9,427.6,426.7,427L426.7,427z"/>
			<path class="st22" d="M428.1,457.7c-8.5,0-15.4-6.9-15.4-15.4c0-8,6.2-14.5,13.9-15.4l0,0l0,0l47.8-4.7h51.5l0,0l47.8,4.7l0,0
				l0,0c7.9,0.7,13.9,7.4,13.9,15.4c0,8.5-6.9,15.4-15.4,15.4H428.1L428.1,457.7L428.1,457.7L428.1,457.7z M572.3,453.2
				c6,0,11-4.8,11-11c0-5.7-4.3-10.4-9.9-10.9l0,0l-47.5-4.7l0,0h-51.2l-47.5,4.7l0,0c-5.5,0.5-9.9,5.2-9.9,10.9c0,6,4.8,11,11,11
				H572.3L572.3,453.2L572.3,453.2z"/>
			<path class="st34" d="M525.8,426.8c2.5,0,4.3,2,4.3,4.3c0,2.5-2,4.3-4.3,4.3s-4.3-2-4.3-4.3C521.3,428.8,523.3,426.8,525.8,426.8
				L525.8,426.8z"/>
			<path class="st34" d="M500.3,444.5c2.5,0,4.3,2,4.3,4.3s-2,4.3-4.3,4.3s-4.3-2-4.3-4.3C495.9,446.5,497.8,444.5,500.3,444.5
				L500.3,444.5z"/>
			<path class="st34" d="M513.8,444.5c2.5,0,4.3,2,4.3,4.3s-2,4.3-4.3,4.3s-4.3-2-4.3-4.3C509.5,446.5,511.3,444.5,513.8,444.5
				L513.8,444.5z"/>
			<path class="st34" d="M474.7,426.8c2.5,0,4.3,2,4.3,4.3c0,2.5-2,4.3-4.3,4.3s-4.3-2-4.3-4.3C470.3,428.8,472.2,426.8,474.7,426.8
				L474.7,426.8z"/>
			<path class="st34" d="M527.4,444.5c2.3,0,4.3,2,4.3,4.3s-2,4.3-4.3,4.3c-2.5,0-4.3-2-4.3-4.3C523,446.5,525,444.5,527.4,444.5
				L527.4,444.5z"/>
			<path class="st34" d="M540.9,444.5c2.5,0,4.3,2,4.3,4.3s-2,4.3-4.3,4.3c-2.5,0-4.3-2-4.3-4.3
				C536.5,446.5,538.6,444.5,540.9,444.5L540.9,444.5z"/>
			<path class="st34" d="M554.4,444.5c2.5,0,4.3,2,4.3,4.3s-2,4.3-4.3,4.3s-4.3-2-4.3-4.3S552.1,444.5,554.4,444.5L554.4,444.5z"/>
			<path class="st34" d="M445.9,444.5c2.5,0,4.3,2,4.3,4.3s-2,4.3-4.3,4.3c-2.5,0-4.3-2-4.3-4.3S443.4,444.5,445.9,444.5
				L445.9,444.5z"/>
			<path class="st34" d="M459.5,444.5c2.5,0,4.3,2,4.3,4.3s-2,4.3-4.3,4.3c-2.5,0-4.3-2-4.3-4.3
				C455.1,446.5,457.1,444.5,459.5,444.5L459.5,444.5z"/>
			<path class="st34" d="M473,444.5c2.5,0,4.3,2,4.3,4.3s-2,4.3-4.3,4.3c-2.5,0-4.3-2-4.3-4.3S470.7,444.5,473,444.5L473,444.5z"/>
			<path class="st34" d="M486.6,444.5c2.5,0,4.3,2,4.3,4.3s-2,4.3-4.3,4.3c-2.5,0-4.3-2-4.3-4.3
				C482.2,446.5,484.2,444.5,486.6,444.5L486.6,444.5z"/>
			<path class="st34" d="M428.2,433c5.2,0,9.4,4.2,9.4,9.4s-4.2,9.4-9.4,9.4s-9.4-4.2-9.4-9.4C418.9,437.2,423,433,428.2,433
				L428.2,433z"/>
			<path class="st34" d="M572.3,433c5.2,0,9.4,4.2,9.4,9.4s-4.2,9.4-9.4,9.4s-9.4-4.2-9.4-9.4C563,437.2,567.1,433,572.3,433
				L572.3,433z"/>
			<path class="st35" d="M574.5,436.2c2.5,0.8,4.3,3.3,4.3,6.2c0,3.7-3,6.5-6.5,6.5c-0.8,0-1.5-0.2-2.2-0.3L574.5,436.2L574.5,436.2
				z"/>
			<path class="st36" d="M435.2,448.2h73.9l5.2-14.2h-81.9c3,1.5,5.2,4.7,5.2,8.4C437.4,444.5,436.6,446.7,435.2,448.2L435.2,448.2z
				"/>
			<path class="st36" d="M572.3,435.7c0.8,0,1.5,0.2,2.2,0.3l-4.5,12.4c-2.5-0.8-4.3-3.3-4.3-6.2
				C565.6,438.7,568.6,435.7,572.3,435.7L572.3,435.7z"/>
			<path class="st35" d="M430.4,436.2c2.5,0.8,4.3,3.3,4.3,6.2c0,3.7-3,6.5-6.5,6.5c-0.8,0-1.5-0.2-2.2-0.3L430.4,436.2L430.4,436.2
				z"/>
			<path class="st36" d="M428.2,435.7c0.8,0,1.5,0.2,2.2,0.3l-4.5,12.4c-2.5-0.8-4.3-3.3-4.3-6.2
				C421.5,438.7,424.5,435.7,428.2,435.7L428.2,435.7z"/>
			<path class="st35" d="M509.1,448.2h56c-1.3-1.7-2.2-3.7-2.2-6c0-3.7,2-6.7,5.2-8.4h-53.8L509.1,448.2L509.1,448.2z"/>
			<polygon class="st24" points="305.7,249.1 255.2,268.8 262.6,248.3 307.9,220 318.7,213.2 			"/>
		</g>
		<path class="st15" d="M168.1,457.7c22.2-40.6,64.4-62.2,95.8-62.2v62.2H168.1L168.1,457.7z"/>
		<path class="st17" d="M359.7,457.7c-22.2-40.6-64.4-62.2-95.8-62.2v62.2H359.7L359.7,457.7z"/>
		<path class="st15" d="M272.8,442.7c2,0,3.7,1.7,3.7,3.7s-1.7,3.7-3.7,3.7s-3.7-1.7-3.7-3.7S270.8,442.7,272.8,442.7L272.8,442.7z"
			/>
		<path class="st15" d="M311.7,442.8c1.3,0,2.3,1,2.3,2.3s-1,2.3-2.3,2.3s-2.3-1-2.3-2.3S310.4,442.8,311.7,442.8L311.7,442.8z"/>
		<path class="st15" d="M286,449c1.3,0,2.3,1,2.3,2.3s-1,2.3-2.3,2.3s-2.3-1-2.3-2.3C283.6,450.2,284.8,449,286,449L286,449z"/>
		<path class="st15" d="M276.9,430.5c1.3,0,2.3,1,2.3,2.3s-1,2.3-2.3,2.3s-2.3-1-2.3-2.3S275.6,430.5,276.9,430.5L276.9,430.5z"/>
		<path class="st17" d="M243.8,434.2c2.7,0,5,2.2,5,5c0,2.7-2.2,5-5,5c-2.7,0-5-2.2-5-5C239,436.3,241.2,434.2,243.8,434.2
			L243.8,434.2z"/>
		<path class="st17" d="M229.3,420.1c1.8,0,3.2,1.5,3.2,3.2c0,1.8-1.5,3.2-3.2,3.2c-1.8,0-3.2-1.5-3.2-3.2
			C226.1,421.4,227.6,420.1,229.3,420.1L229.3,420.1z"/>
		<path class="st17" d="M252.4,445.9c2.2,0,3.8,1.7,3.8,3.8s-1.7,3.8-3.8,3.8c-2.2,0-3.8-1.7-3.8-3.8
			C248.5,447.7,250.4,445.9,252.4,445.9L252.4,445.9z"/>
		<path class="st17" d="M214.1,446c1.5,0,2.8,1.3,2.8,2.8s-1.3,2.8-2.8,2.8s-2.8-1.3-2.8-2.8C211.2,447.2,212.6,446,214.1,446
			L214.1,446z"/>
		<path class="st17" d="M226.8,437.3c2,0,3.5,1.5,3.5,3.5s-1.5,3.5-3.5,3.5s-3.5-1.5-3.5-3.5C223.4,439,224.9,437.3,226.8,437.3
			L226.8,437.3z"/>
		<path class="st17" d="M255.4,424.1c1.5,0,2.7,1.2,2.7,2.7s-1.2,2.7-2.7,2.7s-2.7-1.2-2.7-2.7C252.7,425.5,253.9,424.1,255.4,424.1
			L255.4,424.1z"/>
		<path class="st17" d="M239.8,447c1.3,0,2.3,1,2.3,2.3s-1,2.3-2.3,2.3s-2.3-1-2.3-2.3C237.5,448.2,238.5,447,239.8,447L239.8,447z"
			/>
		<path class="st17" d="M192.5,439c1.2,0,2.2,1,2.2,2.2s-1,2.2-2.2,2.2s-2.2-1-2.2-2.2S191.3,439,192.5,439L192.5,439z"/>
	</g>
</g>
</svg>
